#!OML:ASF H:\BabyWalks\Project 1\Capture day 1\Session 1\baby.ASF
:FULLY-SPECIFIED
:DEGREES
1158
root 11.8604 17.4317 -0.136547 -18.9765 64.5325 -21.2914
lowerback 18.7109 1.99266 5.08338
upperback 4.90594 3.80972 0.632011
thorax -4.88036 1.92392 -3.06026
lowerneck 2.15988 6.26892 8.38449
upperneck -17.6607 8.02225 -10.1434
head -4.83666 4.24736 -4.91232
rclavicle -9.52179e-014 2.14687e-014
rhumerus -42.5073 8.02445 -85.8564
rradius 54.2235
rwrist -0.171673
rhand -13.5429 -14.8534
rfingers 7.12502
rthumb 12.5698 -44.4552
lclavicle -9.52179e-014 2.14687e-014
lhumerus -62.2647 -26.5338 95.8141
lradius 49.3651
lwrist 2.21317
lhand 18.2182 14.4439
lfingers 7.12502
lthumb 42.8718 38.735
rfemur 1.20568 16.3309 27.5721
rtibia 22.7792
rfoot -15.7888 16.4725
rtoes 10.2269
lfemur -24.7157 -0.882623 -1.66197
ltibia 33.7327
lfoot -10.5671 -2.48639
ltoes -9.76162
1159
root 11.9536 17.4377 -0.148264 -19.0758 64.4981 -21.4357
lowerback 18.6438 1.97503 5.01221
upperback 4.89602 3.75782 0.47208
thorax -4.85315 1.89915 -3.17592
lowerneck 2.04371 6.27632 8.25996
upperneck -17.5366 8.05974 -9.8322
head -4.79834 4.24956 -4.78575
rclavicle 1.41137e-014 2.38542e-015
rhumerus -42.426 6.97443 -85.4481
rradius 52.4925
rwrist 0.517493
rhand -13.9089 -15.2515
rfingers 7.12502
rthumb 12.2169 -44.8747
lclavicle 1.41137e-014 2.38542e-015
lhumerus -60.5384 -26.6592 94.2047
lradius 49.0592
lwrist 1.89313
lhand 16.7999 13.9115
lfingers 7.12502
lthumb 41.5431 38.6528
rfemur 1.58398 16.2224 27.5558
rtibia 22.5451
rfoot -15.7153 16.3422
rtoes 10.0116
lfemur -24.7359 -0.394004 -1.83762
ltibia 34.2616
lfoot -11.0164 -2.9256
ltoes -9.66126
1160
root 12.0447 17.4468 -0.160165 -19.3087 64.4957 -21.7288
lowerback 18.5889 1.93843 5.00594
upperback 4.87734 3.69618 0.337748
thorax -4.8403 1.86861 -3.29989
lowerneck 1.9464 6.28015 8.139
upperneck -17.4255 8.08889 -9.55434
head -4.76595 4.25034 -4.67169
rclavicle -6.67916e-014 2.22639e-014
rhumerus -42.3482 5.98556 -85.0188
rradius 50.7703
rwrist 1.1924
rhand -14.1794 -15.6767
rfingers 7.12502
rthumb 11.9562 -45.3153
lclavicle -6.67916e-014 2.22639e-014
lhumerus -58.6965 -26.5911 92.4501
lradius 48.777
lwrist 1.52125
lhand 15.2563 13.3961
lfingers 7.12502
lthumb 40.0929 38.594
rfemur 1.98907 16.074 27.5946
rtibia 22.1998
rfoot -15.5687 16.1928
rtoes 9.74158
lfemur -24.7373 0.014115 -1.95204
ltibia 34.6995
lfoot -11.4153 -3.31657
ltoes -9.56365
1161
root 12.1335 17.4584 -0.172432 -19.6269 64.5214 -22.1224
lowerback 18.5459 1.88848 5.04174
upperback 4.84732 3.62727 0.225258
thorax -4.8456 1.83336 -3.42396
lowerneck 1.87559 6.28303 8.02973
upperneck -17.3339 8.11289 -9.31996
head -4.74155 4.25141 -4.57513
rclavicle -5.94366e-014 7.15625e-015
rhumerus -42.2798 5.06713 -84.5691
rradius 49.0728
rwrist 1.8722
rhand -14.3366 -16.0964
rfingers 7.12502
rthumb 11.8045 -45.7437
lclavicle -5.94366e-014 7.15625e-015
lhumerus -56.766 -26.3013 90.579
lradius 48.5345
lwrist 1.1049
lhand 13.5913 12.9089
lfingers 7.12502
lthumb 38.524 38.5636
rfemur 2.40493 15.9023 27.6664
rtibia 21.773
rfoot -15.3649 16.027
rtoes 9.41268
lfemur -24.7205 0.33735 -2.02347
ltibia 35.0459
lfoot -11.7658 -3.65367
ltoes -9.47515
1162
root 12.22 17.4724 -0.184904 -19.9668 64.5812 -22.5522
lowerback 18.5087 1.82948 5.0857
upperback 4.80514 3.54941 0.128648
thorax -4.86874 1.79265 -3.5347
lowerneck 1.82758 6.28592 7.92687
upperneck -17.2586 8.13345 -9.12237
head -4.72399 4.25331 -4.49274
rclavicle -3.18055e-014 -1.59028e-015
rhumerus -42.2294 4.23684 -84.1069
rradius 47.4192
rwrist 2.55716
rhand -14.3614 -16.5191
rfingers 7.12502
rthumb 11.7806 -46.1678
lclavicle -3.18055e-014 -1.59028e-015
lhumerus -54.7917 -25.7749 88.6315
lradius 48.3609
lwrist 0.654758
lhand 11.7959 12.4519
lfingers 7.12502
lthumb 36.8276 38.5607
rfemur 2.80849 15.7137 27.7373
rtibia 21.3009
rfoot -15.111 15.8591
rtoes 9.05489
lfemur -24.6895 0.574401 -2.08355
ltibia 35.2984
lfoot -12.0641 -3.93795
ltoes -9.38394
1163
root 12.3041 17.4889 -0.197543 -20.2747 64.6747 -22.9643
lowerback 18.4738 1.76785 5.11089
upperback 4.75108 3.46532 0.0426249
thorax -4.90873 1.74796 -3.6229
lowerneck 1.79167 6.29024 7.83001
upperneck -17.191 8.15267 -8.95614
head -4.70896 4.25652 -4.42192
rclavicle -1.59028e-015 -7.15625e-015
rhumerus -42.2012 3.49452 -83.6333
rradius 45.8345
rwrist 3.2609
rhand -14.218 -16.9419
rfingers 7.12502
rthumb 11.9189 -46.5826
lclavicle -1.59028e-015 -7.15625e-015
lhumerus -52.81 -25.0168 86.652
lradius 48.2756
lwrist 0.183697
lhand 9.87746 12.0245
lfingers 7.12502
lthumb 35.0101 38.5782
rfemur 3.1813 15.5104 27.7808
rtibia 20.8099
rfoot -14.8279 15.6976
rtoes 8.61339
lfemur -24.6501 0.726775 -2.15651
ltibia 35.4651
lfoot -12.3136 -4.16547
ltoes -9.29762
1164
root 12.3858 17.5071 -0.210271 -20.504 64.8025 -23.3064
lowerback 18.4365 1.70876 5.09739
upperback 4.68988 3.37729 -0.0404792
thorax -4.95837 1.70095 -3.68547
lowerneck 1.76502 6.29448 7.73312
upperneck -17.1376 8.16927 -8.8124
head -4.69879 4.2602 -4.35908
rclavicle 5.96354e-015 2.38542e-015
rhumerus -42.1971 2.83749 -83.1504
rradius 44.3401
rwrist 4.00713
rhand -13.8861 -17.344
rfingers 7.12502
rthumb 12.2389 -46.9659
lclavicle 5.96354e-015 2.38542e-015
lhumerus -50.8602 -24.0587 84.689
lradius 48.2981
lwrist -0.271532
lhand 7.82078 11.616
lfingers 7.12502
lthumb 33.0566 38.6043
rfemur 3.5241 15.3129 27.7713
rtibia 20.3203
rfoot -14.5087 15.5582
rtoes 8.21085
lfemur -24.6013 0.798117 -2.26754
ltibia 35.5564
lfoot -12.5242 -4.33035
ltoes -9.22779
1165
root 12.4649 17.5264 -0.222988 -20.6539 64.9591 -23.5792
lowerback 18.3962 1.65456 5.0471
upperback 4.62203 3.28858 -0.122051
thorax -5.01617 1.65333 -3.72557
lowerneck 1.74354 6.29612 7.63039
upperneck -17.0973 8.18111 -8.67801
head -4.69361 4.2627 -4.29893
rclavicle -3.97569e-015 -1.11319e-014
rhumerus -42.2226 2.26177 -82.6627
rradius 42.9539
rwrist 4.8039
rhand -13.3582 -17.7046
rfingers 7.12502
rthumb 12.7479 -47.2954
lclavicle -3.97569e-015 -1.11319e-014
lhumerus -48.9775 -22.9418 82.7865
lradius 48.4432
lwrist -0.674184
lhand 5.65047 11.2254
lfingers 7.12502
lthumb 30.9902 38.6288
rfemur 3.83647 15.1259 27.7102
rtibia 19.8378
rfoot -14.1795 15.4458
rtoes 7.77282
lfemur -24.5511 0.798843 -2.41438
ltibia 35.5881
lfoot -12.7034 -4.43567
ltoes -9.19346
1166
root 12.5413 17.546 -0.235558 -20.7244 65.1436 -23.7801
lowerback 18.3507 1.60619 4.96083
upperback 4.55287 3.20039 -0.204257
thorax -5.07471 1.60619 -3.74585
lowerneck 1.72987 6.29287 7.52635
upperneck -17.0807 8.18553 -8.55365
head -4.69713 4.26263 -4.24288
rclavicle 6.36111e-015 -4.77083e-015
rhumerus -42.2768 1.75915 -82.173
rradius 41.6935
rwrist 5.65329
rhand -12.6241 -18.0111
rfingers 7.12502
rthumb 13.4555 -47.5565
lclavicle 6.36111e-015 -4.77083e-015
lhumerus -47.1835 -21.7114 80.9774
lradius 48.7246
lwrist -0.980506
lhand 3.4007 10.8616
lfingers 7.12502
lthumb 28.8434 38.6522
rfemur 4.12643 14.9521 27.5978
rtibia 19.3598
rfoot -13.8381 15.3665
rtoes 7.30264
lfemur -24.5059 0.733178 -2.5977
ltibia 35.5771
lfoot -12.857 -4.48216
ltoes -9.18314
1167
root 12.6149 17.5649 -0.247943 -20.7396 65.3445 -23.9323
lowerback 18.3015 1.56473 4.85358
upperback 4.48404 3.11713 -0.286288
thorax -5.13157 1.56178 -3.75487
lowerneck 1.72903 6.28177 7.41433
upperneck -17.0927 8.18041 -8.4249
head -4.71288 4.25843 -4.18579
rclavicle 1.39149e-014 1.74931e-014
rhumerus -42.3612 1.32002 -81.6868
rradius 40.5675
rwrist 6.54808
rhand -11.6806 -18.2469
rfingers 7.12502
rthumb 14.3647 -47.7299
lclavicle 1.39149e-014 1.74931e-014
lhumerus -45.4963 -20.4125 79.2885
lradius 49.1514
lwrist -1.16114
lhand 1.10535 10.5255
lfingers 7.12502
lthumb 26.6487 38.6698
rfemur 4.40537 14.7952 27.4498
rtibia 18.8729
rfoot -13.4752 15.3226
rtoes 6.79683
lfemur -24.4719 0.614415 -2.80173
ltibia 35.5448
lfoot -12.9915 -4.47607
ltoes -9.18005
1168
root 12.6857 17.5832 -0.259956 -20.7283 65.557 -24.0628
lowerback 18.2485 1.52819 4.737
upperback 4.42002 3.03862 -0.366001
thorax -5.18137 1.52027 -3.75676
lowerneck 1.74089 6.26367 7.29803
upperneck -17.1357 8.16685 -8.29442
head -4.74123 4.25062 -4.12914
rclavicle 6.32135e-014 -2.38542e-015
rhumerus -42.4713 0.941956 -81.2097
rradius 39.5822
rwrist 7.47409
rhand -10.5612 -18.3937
rfingers 7.12502
rthumb 15.4432 -47.7968
lclavicle 6.32135e-014 -2.38542e-015
lhumerus -43.9257 -19.0911 77.7365
lradius 49.7327
lwrist -1.1745
lhand -1.20948 10.2031
lfingers 7.12502
lthumb 24.4314 38.6653
rfemur 4.67801 14.6541 27.2821
rtibia 18.3729
rfoot -13.0826 15.3133
rtoes 6.25218
lfemur -24.4504 0.449624 -3.01284
ltibia 35.5023
lfoot -13.1121 -4.42266
ltoes -9.18545
